HIERARCHY
ROOT ui
{
	 OFFSET 0 0 0
	 CHANNELS 3 XPosition YPosition Z Position
	 EndSite
	 {
	 OFFSET 0 -1 0
	 }
}
ROOT li
{
	 OFFSET 0 0 0
	 CHANNELS 3 XPosition YPosition Z Position
	 EndSite
	 {
	 OFFSET 0 -1 0
	 }
}
ROOT ul
{
	 OFFSET 0 0 0
	 CHANNELS 3 XPosition YPosition Z Position
	 EndSite
	 {
	 OFFSET 0 -1 0
	 }
}
ROOT ll
{
	 OFFSET 0 0 0
	 CHANNELS 3 XPosition YPosition Z Position
	 EndSite
	 {
	 OFFSET 0 -1 0
	 }
}
ROOT tt
{
	 OFFSET 0 0 0
	 CHANNELS 3 XPosition YPosition Z Position
	 EndSite
	 {
	 OFFSET 0 -1 0
	 }
}
ROOT tb
{
	 OFFSET 0 0 0
	 CHANNELS 3 XPosition YPosition Z Position
	 EndSite
	 {
	 OFFSET 0 -1 0
	 }
}
ROOT td
{
	 OFFSET 0 0 0
	 CHANNELS 3 XPosition YPosition Z Position
	 EndSite
	 {
	 OFFSET 0 -1 0
	 }
}
ROOT v
{
	 OFFSET 0 0 0
	 CHANNELS 3 XPosition YPosition Z Position
	 EndSite
	 {
	 OFFSET 0 -1 0
	 }
}
ROOT bn
{
	 OFFSET 0 0 0
	 CHANNELS 3 XPosition YPosition Z Position
	 EndSite
	 {
	 OFFSET 0 -1 0
	 }
}
MOTION
Frames: 21
Frame Time: 0.002
0.007313745021820068	-1.828169971704483E-4	0		0.42963595581054687	-2.52355517578125	0		-1.1116522216796876	0.008549084663391113	0		-0.8506126708984375	-2.678569580078125	0		1.4127081298828126	-0.8521754760742187	0		3.0509736328125	-0.3119429321289062	0		4.36812353515625	-0.06264823150634766	0		5.59354833984375	0.136230224609375	0		-0.3037138977050781	5.892423828125	0		
0.01035578727722168	0.003971431016921997	0		0.405491943359375	-2.516223388671875	0		-1.111640869140625	0.008820480346679687	0		-0.8457862548828124	-2.673359619140625	0		1.4156790771484375	-0.8481384887695312	0		3.03413232421875	-0.2898854675292969	0		4.35918896484375	-0.05674657440185547	0		5.6016884765625	0.15087860107421874	0		-0.30321163940429685	5.89262744140625	0		
0.020361881256103515	-0.005930257797241211	0		0.43335089111328123	-2.5183017578125	0		-1.1175142822265625	0.014139485359191895	0		-0.8469315185546875	-2.6741025390625	0		1.415694091796875	-0.8480780639648438	0		3.0569541015625	-0.3201424865722656	0		4.36734619140625	-0.048979171752929686	0		5.591802734375	0.15266925048828126	0		-0.2685873107910156	5.89856005859375	0		
0.010599136352539062	0.004325347900390625	0		0.43128463745117185	-2.52014404296875	0		-1.117356201171875	0.014408469200134277	0		-0.8448416137695313	-2.65487255859375	0		1.4127491455078125	-0.8519931640625	0		3.052294189453125	-0.2941773986816406	0		4.359447265625	-0.05708013153076172	0		5.59197216796875	0.15238645935058595	0		-0.23390614318847655	5.9034853515625	0		
0.007787521839141846	5.232669711112976E-4	0		0.42927911376953126	-2.522988037109375	0		-1.1171346435546874	0.014672121047973634	0		-0.8838241577148438	-2.6533134765625	0		1.4129014892578124	-0.8519319458007812	0		3.05538525390625	-0.3072713928222656	0		4.36773974609375	-0.04930406951904297	0		5.592205078125	0.15211322021484375	0		-0.2823336181640625	5.88907763671875	0		
-0.03500252532958984	-0.006954039096832275	0		0.40340054321289065	-2.5176376953125	0		-1.110900634765625	0.009879225730895997	0		-0.8380025634765625	-2.683451904296875	0		1.41310986328125	-0.8518709106445312	0		3.04565234375	-0.3052550354003906	0		4.35402197265625	-0.04934064483642578	0		5.59249072265625	0.15185182189941407	0		-0.3005716857910156	5.8934248046875	0		
0.025362586975097655	-0.0012840260267257691	0		0.40757400512695313	-2.5125361328125	0		-1.1055489501953124	0.01408428192138672	0		-0.9077890625	-2.67164599609375	0		1.43334765625	-0.8539761962890625	0		3.07084765625	-0.3175218200683594	0		4.36028125	-0.05753195190429688	0		5.60280322265625	0.14952102661132813	0		-0.28474481201171875	5.9024873046875	0		
0.01176596736907959	0.004989610195159912	0		0.43472503662109374	-2.515631591796875	0		-1.0332393798828126	0.008719063758850098	0		-0.8404417724609375	-2.649984130859375	0		1.4166915283203125	-0.8477760009765625	0		3.05147119140625	-0.2824122314453125	0		4.3638154296875	-0.03669024658203125	0		5.60316650390625	0.14928756713867186	0		-0.248929931640625	5.908373046875	0		
0.022059127807617186	-0.004942570209503174	0		0.43190325927734374	-2.519482177734375	0		-1.1158079833984376	0.015638081550598145	0		-0.848448974609375	-2.674708251953125	0		1.4139794921875	-0.85169140625	0		3.052577392578125	-0.31246798706054685	0		4.363158203125	-0.041803276062011716	0		5.59357080078125	0.15115533447265625	0		-0.2642388916015625	5.89967724609375	0		
0.012531800270080566	0.005286386013031006	0		0.45709292602539064	-2.52457470703125	0		-1.038430419921875	0.014199542999267577	0		-0.8460645141601563	-2.65552783203125	0		1.41431494140625	-0.8516324462890625	0		3.05698828125	-0.3075438232421875	0		4.36948486328125	-0.04996385192871094	0		5.5939677734375	0.1509574432373047	0		-0.263488525390625	5.89983935546875	0		
-0.03016253662109375	-0.0032080140113830567	0		0.40439111328125	-2.517009765625	0		-1.10908056640625	0.011004027366638183	0		-0.8459806518554688	-2.672340087890625	0		1.41464697265625	-0.8515743408203125	0		3.053308837890625	-0.312545166015625	0		4.35093994140625	-0.04190113830566406	0		5.5902802734375	0.14181137084960938	0		-0.2768644104003906	5.88911279296875	0		
0.023181377410888673	-0.004530241012573242	0		0.4346115417480469	-2.517157470703125	0		-1.103691162109375	0.01515101146697998	0		-0.8447587280273438	-2.671172607421875	0		1.423042236328125	-0.8415867919921876	0		3.039887939453125	-0.2844559326171875	0		4.36128271484375	-0.044074996948242184	0		5.60064208984375	0.14156134033203124	0		-0.2961547241210937	5.8944306640625	0		
-0.02949770736694336	-0.0029495410919189455	0		0.4088434753417969	-2.511830078125	0		-1.1033798828125	0.015328813552856445	0		-0.8763699340820312	-2.646731689453125	0		1.418260009765625	-0.84748876953125	0		3.066958984375	-0.31071249389648437	0		4.3615986328125	-0.04415393829345703	0		5.60502001953125	0.1483773956298828	0		-0.2814622497558594	5.90544775390625	0		
0.013828134536743164	0.005795139789581299	0		0.43291900634765623	-2.518939453125	0		-1.11412060546875	0.01659071731567383	0		-0.8802646484375	-2.64954052734375	0		1.41543701171875	-0.8514088134765625	0		3.053438232421875	-0.28261187744140626	0		4.3648701171875	-0.04224889373779297	0		5.60121533203125	0.14127906799316406	0		-0.2609931335449219	5.90040380859375	0		
-0.0550743408203125	-0.0024919381141662597	0		0.4029911193847656	-2.518584228515625	0		-1.11394677734375	0.016747066497802734	0		-0.880198974609375	-2.649393798828125	0		1.412549560546875	-0.854328857421875	0		3.061425048828125	-0.3026936645507812	0		4.35697802734375	-0.05023665618896484	0		5.59547314453125	0.15021492004394532	0		-0.2265381774902344	5.90522900390625	0		
0.02399879264831543	-0.004076037883758545	0		0.43298284912109375	-2.518755859375	0		-1.10194921875	0.006789053916931152	0		-0.8454049682617187	-2.671561279296875	0		1.42157666015625	-0.857353271484375	0		3.0555693359375	-0.29464743041992186	0		4.37599609375	-0.05844892120361328	0		5.601484375	0.14106396484375	0		-0.26027960205078127	5.90064111328125	0		
-0.05500042343139649	-0.0022802770137786863	0		0.41096896362304686	-2.50947509765625	0		-1.1028807373046876	0.015935632705688478	0		-0.8315484008789062	-2.6765546875	0		1.4355721435546875	-0.8534215087890625	0		3.0773896484375	-0.3128389587402344	0		4.367041015625	-0.05240563201904297	0		5.5996103515625	0.1559984130859375	0		-0.2780780029296875	5.90290966796875	0		
0.030938377380371095	0.0030615670680999756	0		0.46371102905273437	-2.517855224609375	0		-1.1089466552734375	0.021120441436767577	0		-0.8446851806640625	-2.670316162109375	0		1.4184896240234375	-0.847215087890625	0		3.0575791015625	-0.27765597534179687	0		4.37500341796875	-0.04450103759765625	0		5.60543310546875	0.14787872314453124	0		-0.27900448608398437	5.9040263671875	0		
-0.06523312377929688	0.008008747100830079	0		0.4324248962402344	-2.518494873046875	0		-1.108236572265625	0.01224028205871582	0		-0.8417908935546875	-2.65022216796875	0		1.4152208251953124	-0.8511280517578125	0		3.028149658203125	-0.30138214111328127	0		4.3567431640625	-0.0503553466796875	0		5.6052265625	0.14782637023925782	0		-0.28003860473632813	5.90614111328125	0		
0.023358821868896484	-0.0036801838874816893	0		0.4300297546386719	-2.521388671875	0		-1.1085433349609375	0.01236627197265625	0		-0.8811522827148438	-2.648756591796875	0		1.411866455078125	-0.8540369262695312	0		3.05184326171875	-0.3005701904296875	0		4.36450927734375	-0.042429214477539064	0		5.60086083984375	0.14082423400878907	0		-0.2602467041015625	5.9010693359375	0		
-0.056024593353271486	-0.001877897024154663	0		0.4316051940917969	-2.518316162109375	0		-1.1089384765625	0.012490762710571288	0		-0.8358839111328125	-2.680045166015625	0		1.4204251708984375	-0.8570481567382813	0		3.060423095703125	-0.3026177673339844	0		4.35604541015625	-0.050349929809570315	0		5.594548828125	0.14985325622558593	0		-0.2605114440917969	5.90117529296875	0		
